<?xml version="1.0" encoding="utf-8" ?>
<svg xmlns="http://www.w3.org/2000/svg" xmlns:xlink="http://www.w3.org/1999/xlink" width="3072" height="3072">
	<path transform="scale(3 3)" d="M0 0L1024 0L1024 268.033L1024 292.842L1024 619.128L1024 635.07L1024 1024L0 1024L0 459.783L0 452.713L0 0Z"/>
	<path fill="white" transform="scale(3 3)" d="M698.036 342.087L699.438 342.008C705.124 344.865 722.139 361.16 727.246 366.429C709.31 369.297 691.856 375.906 680.575 390.894L676.102 387.816C665.54 380.949 654.657 374.622 643.692 368.427C659.584 356.14 678.566 347.041 698.036 342.087Z"/>
	<path fill="white" transform="scale(3 3)" d="M660.074 312.53C664.301 312.134 692.247 335.696 697.058 339.606C676.124 344.388 656.837 354.088 639.106 365.966L635.823 364.051C623.122 356.482 609.594 350.176 596.211 343.916C615.965 329.452 636.759 319.697 660.074 312.53Z"/>
	<path fill="white" transform="scale(3 3)" d="M617.534 284.985C626.917 288.711 649.346 303.51 657.25 310.128C641.756 314.841 626.196 320.677 612.109 328.752C606.062 332.218 597.183 339.29 591.257 341.623L589.377 340.796C575.389 334.447 561.215 328.725 546.939 323.068C569.397 306.53 591.4 294.808 617.534 284.985Z"/>
	<path fill="white" transform="scale(3 3)" d="M468.052 241.216C480.239 240.473 492.82 241.626 504.78 243.906C498.154 246.797 491.141 248.889 484.472 251.754C462.206 261.32 435.784 276.186 418.7 293.47C413.317 292.801 407.912 292.251 402.52 291.645C389.148 290.337 375.822 289.454 362.385 289.521C393.368 261.674 425.339 243.279 468.052 241.216Z"/>
	<path fill="white" transform="scale(3 3)" d="M512.655 245.54C519.3 244.568 551.992 255.202 559.98 258.385C530.529 267.689 502.457 282.627 479.307 303.205L473.095 301.887C457.39 297.812 440.738 295.975 424.661 294.042C446.236 273.656 484.133 254.023 512.655 245.54Z"/>
	<path fill="white" transform="scale(3 3)" d="M564.255 260.48C569.009 259.736 607.731 279.307 614.085 282.861C607.537 285.251 600.906 287.352 594.477 290.071C575.806 297.969 557.832 308.759 542.21 321.673L537.183 319.983C519.855 314.052 502.037 308.71 484.182 304.607C506.011 285.515 536.795 269.652 564.255 260.48Z"/>
	<path fill="white" transform="scale(3 3)" d="M709.787 597.205C713.666 596.578 718.609 596.65 722.493 597.367C725.375 597.898 728.088 598.927 729.953 601.284C733.942 606.326 735.747 614.842 738.04 620.921C740.443 627.294 743.188 633.692 746.876 639.434C751.076 645.972 756.844 652.051 763.788 655.677C767.871 657.809 779.055 659.539 780.945 662.356C780.965 663.905 780.709 664.837 779.771 666.053C772.759 675.15 747.59 679.745 736.365 680.958C726.541 682.021 716.031 682.09 706.263 680.604C684.68 677.322 656.719 665.452 639.853 651.795C636.366 648.971 625.682 639.926 625.214 635.415C625.357 635.317 625.49 635.201 625.644 635.122C626.392 634.739 627.094 634.708 627.915 634.79C632.87 635.281 645.873 644.392 651.291 647.18C664.023 653.731 677.689 657.493 691.606 660.542C701.054 662.374 710.504 663.276 720.109 663.672C690.642 656.555 663.832 646.914 638.839 629.314C641.287 627.921 643.957 626.785 646.502 625.569C668.713 631.668 691.789 632.877 714.632 634.658C706.035 632.118 696.971 630.542 688.251 628.394C677.381 625.716 665.595 621.601 654.433 620.813L666.194 613.558C683.503 613.429 700.561 612.836 717.838 611.73C704.854 609.629 691.735 608.552 678.719 606.647C689.741 599.768 696.739 598.355 709.787 597.205Z"/>
	<path fill="white" transform="scale(3 3)" d="M320.682 658.975L327.736 660.96C332.798 667.825 336.873 675.657 341.469 682.863C356.114 705.826 374.457 726.449 395.357 743.87C397.274 745.467 401.029 749.467 403.391 749.987C403.18 749.551 385.737 732.07 383.362 729.371C370.922 715.24 361.072 700.036 351.562 683.833C347.683 677.225 343.621 670.642 340.673 663.554C344.725 664.361 348.736 665.185 352.717 666.303C367.992 684.012 390.811 698.04 412.152 707.364C401.358 700.089 390.97 692.514 381.138 683.968C375.216 679.131 369.624 673.835 363.891 668.772C370.72 669.953 377.554 671.166 384.414 672.157C391.074 673.119 398.18 673.54 404.565 675.68C409.697 677.401 414.555 680.238 419.212 682.971C423.399 685.428 427.775 688.089 430.832 691.927C431.629 696.898 431.47 702.029 431.469 707.048C431.468 724.404 430.133 741.414 438.207 757.409C441.328 763.592 445.965 768.542 449.379 774.429C450.373 776.143 450.701 777.954 450.063 779.861C449.117 782.688 447.139 783.467 444.62 784.677C427.031 783.987 409.216 776.264 394.471 767.071C361.399 746.453 340.682 715.348 327.633 679.364C325.207 672.676 322.282 665.913 320.682 658.975Z"/>
	<path fill="white" transform="scale(3 3)" d="M1024 292.842L1024 619.128C1017.34 592.79 1003.74 568.278 988.162 546.179C981.902 537.3 975.086 528.803 968.947 519.844C944.741 484.52 943.97 459.482 967.697 423.918C976.979 410.006 987.032 397.161 994.886 382.284C1009.53 354.555 1018.35 323.575 1024 292.842Z"/>
	<path fill="white" transform="scale(3 3)" d="M992.285 257.691C994.488 257.469 996.897 257.972 999.022 258.581C1004.14 260.049 1008.05 263.015 1010.52 267.797C1015.62 277.668 1011.98 291.399 1009.9 301.724C1003.45 333.694 992.57 365.69 974.767 393.193C963.075 411.257 949.116 426.864 942.301 447.777C928.414 490.394 955.29 520.878 978.198 553.061C985.669 563.556 992.663 574.651 998.533 586.125C1004.27 597.329 1016.03 621.683 1011.75 633.675C1010.72 636.562 1008.35 638.078 1005.66 639.31C992.059 645.548 973.519 643.578 959.411 640.391C922.846 632.131 890.648 611.307 865.982 583.474C855.858 572.05 842.89 552.914 830.507 544.885C826.048 541.994 821.27 540.158 816.301 538.334C821.827 534.281 827.419 530.383 832.812 526.146C842.892 533.498 852.11 542.159 861.983 549.826C895.95 576.205 932.988 602.055 972.792 618.724L972.589 619.861L973.087 618.634C973.522 619.1 973.896 619.169 974.484 619.38L973.968 618.945L973.81 619.161L974.52 619.316C960.765 610.057 946.121 602.045 932.4 592.668C899.935 570.48 869.05 544.645 840.668 517.442L845.96 510.577C855.158 512.967 863.901 516.601 872.699 520.145C887.928 526.28 902.91 532.824 917.395 540.576C924.278 544.26 937.025 552.709 943.469 554.979C934.549 547.139 923.944 540.753 913.899 534.501C893.644 522.143 872.739 511.554 851.467 501.105C853.859 494.511 855.366 487.998 856.71 481.135C876.468 477.568 896.981 474.864 917.06 474.254C912.893 473.3 908.299 473.269 904.037 472.964C888.39 471.843 872.728 471.9 857.054 472.113C856.777 468.365 856.456 464.707 855.754 461.013C878.529 428.612 901.211 403.961 934.636 382.255C943.485 376.509 952.33 371.017 962.067 366.873L962.22 366.464C955.218 368.147 947.654 372.151 941.25 375.389C905.506 393.464 876.77 419.697 850.962 449.924L845.431 440.808C851.207 427.748 857.175 414.923 864.237 402.499C884.047 367.655 911.71 334.349 944.437 310.93C952.238 305.348 960.652 300.65 968.976 295.909C967.909 296.228 966.848 296.566 965.806 296.962C953.007 301.837 940.632 309.208 929.449 317.052C888.546 345.743 857.235 386.51 836.597 431.75C832.119 428.516 827.663 425.465 822.951 422.585C826.844 415.68 831.752 410.791 835.59 403.142C839.855 394.641 843.26 385.643 847.012 376.9C853.76 361.18 861.54 346.636 872.177 333.167C895.887 303.143 928.747 279.055 964.465 265.349C973.535 261.869 982.593 258.837 992.285 257.691Z"/>
	<path fill="white" transform="scale(3 3)" d="M348.722 301.241C440.814 300.38 531.207 323.124 612.945 365.243C636.192 377.222 658.805 390.41 680.688 404.727L711.133 424.714C719.126 429.922 727.058 435.356 735.779 439.294C745.254 443.573 755.572 445.983 765.954 446.489C782.944 447.318 802.187 442.93 815.097 431.257C817.887 432.612 820.575 434.095 823.13 435.859C835.424 444.346 842.646 456.715 845.318 471.206C815.309 486.957 779.93 499.562 745.575 496.006C708.957 492.216 672.357 471.685 639.42 456.393C608.03 441.819 576.753 427.292 544.387 414.955C473.118 387.788 389.851 367.955 313.396 375.66L312.602 373.761C302.446 350.108 285.422 333.309 261.482 323.77C265.775 326.721 270.059 329.681 274.175 332.877C297.094 350.668 309.549 375.115 312.953 403.713C317.578 442.566 304.088 485.589 279.781 516.09C257.976 543.452 226.221 564.8 190.837 568.607C179.921 569.782 164.776 570.679 154.669 565.68C151.201 563.965 148.035 561.05 145.027 558.629C141.708 555.963 138.535 553.107 135.328 550.309C146.532 553.141 157.49 555.64 169.126 555.694C192.317 555.803 213.414 546.104 229.744 529.901C249.195 510.601 259.925 483.997 259.867 456.599C259.808 428.266 249.689 401.798 229.596 381.699C243.772 413.359 254.243 446.499 245.053 481.321C239.373 502.844 224.95 522.861 205.617 534.1C185.229 545.953 163.415 545.478 141.239 539.59C126.375 535.643 111.813 530.212 97.8681 523.737C75.4945 513.35 26.9599 485.314 14.7008 463.857C12.8736 460.659 11.1092 456.317 12.3146 452.607C13.2377 449.766 15.5595 448.341 18.1149 447.122C21.0491 446.935 29.1808 455.039 32.1612 457.264C41.5959 464.308 51.9637 470.951 62.9664 475.19C72.1015 478.709 89.7958 482.063 98.9887 477.519C99.9398 477.048 99.6323 477.345 99.9754 476.321C96.2848 474.275 91.3272 473.806 87.2768 472.452C80.296 470.118 73.3995 466.859 66.8657 463.47C52.9655 456.261 17.4563 433.257 13.1095 418.115C12.3865 415.597 12.5065 413.004 13.9137 410.738C15.0118 408.97 17.1477 407.055 19.2871 406.754C23.8991 406.105 37.669 416.534 41.7844 419.271C51.7445 425.895 61.1347 433.238 70.2297 440.998C94.3551 461.583 108.337 479.572 114.804 511.691C118.72 503.027 119.811 494.096 117.844 484.775C110.701 450.933 63.2767 418.427 35.7336 400.408C52.0285 388.152 73.0366 377.407 91.3052 368.299C171.287 328.423 259.051 302.952 348.722 301.241Z"/>
	<path transform="scale(3 3)" d="M154.688 358.598C164.356 357.707 173.759 359.651 181.982 364.939C190.27 370.27 195.611 378.778 197.675 388.335C199.777 398.065 198.033 408.645 192.497 416.967C186.292 426.295 177.297 431.197 166.534 433.427C157.003 434.227 148.314 433.313 139.968 428.287C131.387 423.121 125.342 414.831 122.998 405.099C120.589 395.098 122.422 384.687 127.908 376.003C134.113 366.179 143.615 361.124 154.688 358.598Z"/>
	<path fill="white" transform="scale(3 3)" d="M156.269 367.133C163.16 366.283 170.823 368.107 176.602 371.864C183.121 376.103 187.335 382.769 188.851 390.323C190.412 398.099 188.717 406.715 184.155 413.239C179.365 420.087 172.603 423.523 164.565 424.843C157.459 425.91 150.087 424.593 144.067 420.575C137.452 416.16 132.834 409.096 131.467 401.261C130.103 393.442 132.163 385.088 136.81 378.676C141.536 372.153 148.383 368.327 156.269 367.133Z"/>
	<path transform="scale(3 3)" d="M152.962 379.581C157.068 379.344 160.831 379.549 164.668 381.255C169.396 383.357 173.136 387.217 174.808 392.144C176.467 397.03 176.115 402.655 173.618 407.198C170.758 412.403 165.838 414.966 160.311 416.427C155.596 416.961 151.536 417.021 147.231 414.617C142.877 412.186 139.666 407.942 138.317 403.162C136.91 398.172 137.643 392.51 140.332 388.069C143.289 383.184 147.658 381.006 152.962 379.581Z"/>
	<path fill="white" transform="scale(3 3)" d="M328.808 379.706C340.722 378.403 356.486 379.178 368.608 379.877C449.04 384.518 528.77 411.248 601.538 444.662L655.038 469.53C675.262 479.039 695.364 488.787 716.823 495.251C762.931 509.139 804.262 498.486 845.302 476.496C844.889 479.482 844.48 482.489 843.857 485.44C839.196 507.512 819.412 522.988 801.569 534.634C763.949 532.268 729.553 559.855 699.673 579.297C684.897 588.912 669.822 598.151 654.255 606.429C620.092 624.945 584.319 639.774 546.512 649.066C439.713 675.315 327.833 660.728 229.253 612.82C209.296 603.122 191.011 591.375 172.077 579.919C187.399 580.315 202.261 578.826 216.89 574.04C254.887 561.609 284.143 533.613 301.94 498.324C319.733 463.042 327.763 419.238 315.21 380.995C319.678 380.274 324.296 380.081 328.808 379.706Z"/>
	<path transform="scale(3 3)" d="M417.212 502.72C438.13 502.31 471.408 503.327 490.308 511.887C495.602 514.284 500.889 518.013 502.876 523.713C506.567 534.304 498.625 549.192 493.878 558.488C482.429 580.907 466 601.424 445.355 615.998C440.583 619.367 435.27 622.956 429.622 624.667C418.666 627.985 404.207 618.616 394.782 613.66C369.175 599.259 345.389 581.985 322.413 563.735C312.826 556.12 302.786 548.308 294.32 539.446C295.922 534.38 297.454 529.085 300.177 524.491C306.921 521.362 314.471 519.48 321.602 517.441C352.959 508.475 384.676 504.105 417.212 502.72Z"/>
	<path fill="white" transform="scale(3 3)" d="M419.756 514.718C438.281 514.072 469.894 515.557 486.301 523.313C488.346 524.28 491.026 525.686 491.732 528.027C493.348 533.39 484.586 550.272 481.947 555.339C470.978 576.397 447.557 606.37 424.272 613.677C389.612 603.232 345.288 566.019 316.025 544.123C345.85 556.678 376.51 566.553 407.07 577.07C412.312 578.874 420.502 583.213 425.625 583.664L424.778 583.039C397.776 569.003 365.961 556.113 337.399 545.394C330.129 542.666 322.672 540.482 315.423 537.711C343.489 540.558 371.3 540.958 399.462 541.662C418.097 542.127 436.715 543.061 455.344 543.707L453.736 543.359L454.21 543.679L453.729 543.144C453.152 543.485 451.409 542.995 450.746 542.902C421.336 538.774 391.748 535.787 362.132 533.606C347.553 532.532 332.409 532.743 317.957 530.798L317.123 530.682C331.653 527.125 346.009 523.427 360.76 520.793C380.199 517.322 400.046 515.602 419.756 514.718Z"/>
	<path fill="white" transform="scale(3 3)" d="M0 0L1024 0L1024 268.033C1020.16 258.932 1014.89 251.983 1005.48 248.237C988.892 241.634 967.902 250.442 952.582 257.175C914.785 273.787 879.583 301.201 855.892 335.151C848.2 346.175 842.064 357.884 836.678 370.184C824.346 398.344 815.807 428.181 780.861 434.018C768.675 436.053 756.229 434.552 744.739 430.08C724.872 422.348 708.996 407.327 690.6 397.071L690.401 396.957C693.434 394.086 696.454 391.036 699.834 388.578C713.132 378.91 730.159 376.582 746.183 377.036C749.014 377.117 751.822 377.337 754.639 377.623C686.892 305.163 580.359 232.558 478.282 229.252C431.779 227.746 389.975 247.81 356.635 279.211C353.164 282.48 349.716 285.819 346.526 289.366C265.664 290.048 186.911 312.433 113.26 344.575C83.3921 357.61 50.1196 374.43 23.8845 393.786C18.9126 393.149 13.0819 395.159 9.14281 398.184C4.50262 401.749 1.64204 407.442 0.940257 413.198C-0.0145682 421.029 4.25808 429.015 9.1207 434.885C9.78959 435.692 10.4804 436.475 11.191 437.246C5.12196 441.495 1.85699 445.445 0 452.713L0 0Z"/>
	<path fill="white" transform="scale(3 3)" d="M0 459.783C1.63262 465.057 3.58567 469.605 6.77199 474.139C21.135 494.578 56.5134 515.841 78.3723 527.396C86.3377 531.606 98.7207 536.072 105.37 540.367C111.286 544.189 116.241 550.326 121.566 554.977C132.109 564.183 143.103 572.929 154.296 581.334C200.182 615.789 251.347 640.012 306.58 655.296C311.148 668.044 314.642 681.074 319.687 693.674C335.822 733.978 363.468 766.764 403.201 785.424C415.06 790.994 437.67 800.157 450.455 795.355C455.085 793.616 458.888 790.181 460.936 785.66C463.031 781.032 463.313 776.748 461.421 771.991C457.096 761.114 448.617 755.13 444.853 741.425C440.648 726.114 447.676 695.473 440.206 684.616C437.015 679.979 432.226 677.304 427.519 674.48C475.554 674.619 523.066 668.989 569.194 655.238C584.221 650.758 598.677 644.98 613.493 639.954C618.69 647.132 623.996 653.996 630.768 659.797C648.516 675.002 681.242 688.625 704.003 692.344C727.356 696.16 764.481 691.857 783.961 677.834C788.399 674.639 792.178 670.384 792.942 664.778C793.453 661.023 792.713 656.907 790.2 653.973C784.019 646.753 771.449 649.124 762.536 640.543C753.905 632.233 749.708 619.552 745.969 608.472C744.517 604.168 743.272 599.691 740.83 595.817C739.056 593.002 736.643 590.668 733.76 589.006C727.84 585.593 720.692 585.026 714.012 584.689C719.595 579.493 726.82 575.488 733.279 571.48C752.046 559.834 774.229 545.854 797.1 546.706C811.924 547.258 824.03 552.971 833.973 563.903C846.606 577.794 857.488 592.954 870.966 606.15C896.81 631.456 939.585 652.921 975.945 654.876C988.569 655.554 1007.21 655.347 1017.19 646.188C1020.61 643.052 1022.38 639.301 1024 635.07L1024 1024L0 1024L0 459.783Z"/>
</svg>
